<mxfile host="Electron" agent="Mozilla/5.0 (Windows NT 10.0; Win64; x64) AppleWebKit/537.36 (KHTML, like Gecko) draw.io/26.0.4 Chrome/128.0.6613.186 Electron/32.2.5 Safari/537.36" version="26.0.4">
  <diagram name="PÃ¡gina-1" id="4CFZficNCrLkznkdq3Yj">
    <mxGraphModel dx="1139" dy="893" grid="1" gridSize="10" guides="1" tooltips="1" connect="1" arrows="1" fold="1" page="1" pageScale="1" pageWidth="1100" pageHeight="900" math="0" shadow="0">
      <root>
        <mxCell id="0" />
        <mxCell id="1" parent="0" />
        <mxCell id="he30Ml1P8pCFyXs213_a-2" value="" style="rounded=0;whiteSpace=wrap;html=1;" vertex="1" parent="1">
          <mxGeometry x="375" y="520" width="240" height="140" as="geometry" />
        </mxCell>
        <mxCell id="he30Ml1P8pCFyXs213_a-3" value="Cliente" style="text;html=1;align=center;verticalAlign=middle;whiteSpace=wrap;rounded=0;" vertex="1" parent="1">
          <mxGeometry x="376" y="520" width="60" height="30" as="geometry" />
        </mxCell>
        <mxCell id="he30Ml1P8pCFyXs213_a-4" value="Empresa" style="text;html=1;align=center;verticalAlign=middle;whiteSpace=wrap;rounded=0;" vertex="1" parent="1">
          <mxGeometry x="465" y="520" width="60" height="30" as="geometry" />
        </mxCell>
        <mxCell id="he30Ml1P8pCFyXs213_a-11" style="edgeStyle=orthogonalEdgeStyle;rounded=0;orthogonalLoop=1;jettySize=auto;html=1;exitX=0;exitY=0.5;exitDx=0;exitDy=0;entryX=0.5;entryY=0;entryDx=0;entryDy=0;" edge="1" parent="1" source="he30Ml1P8pCFyXs213_a-6" target="he30Ml1P8pCFyXs213_a-12">
          <mxGeometry relative="1" as="geometry">
            <mxPoint x="195" y="650" as="targetPoint" />
          </mxGeometry>
        </mxCell>
        <mxCell id="he30Ml1P8pCFyXs213_a-6" value="Pedir servicio" style="rounded=1;whiteSpace=wrap;html=1;" vertex="1" parent="1">
          <mxGeometry x="395" y="560" width="90" height="30" as="geometry" />
        </mxCell>
        <mxCell id="he30Ml1P8pCFyXs213_a-14" style="edgeStyle=orthogonalEdgeStyle;rounded=0;orthogonalLoop=1;jettySize=auto;html=1;exitX=1;exitY=0.5;exitDx=0;exitDy=0;entryX=0.5;entryY=0;entryDx=0;entryDy=0;" edge="1" parent="1" source="he30Ml1P8pCFyXs213_a-7" target="he30Ml1P8pCFyXs213_a-13">
          <mxGeometry relative="1" as="geometry" />
        </mxCell>
        <mxCell id="he30Ml1P8pCFyXs213_a-7" value="Mis servicios" style="rounded=1;whiteSpace=wrap;html=1;" vertex="1" parent="1">
          <mxGeometry x="505" y="560" width="90" height="30" as="geometry" />
        </mxCell>
        <mxCell id="he30Ml1P8pCFyXs213_a-9" value="sobre nosotros" style="rounded=1;whiteSpace=wrap;html=1;" vertex="1" parent="1">
          <mxGeometry x="450" y="610" width="90" height="30" as="geometry" />
        </mxCell>
        <mxCell id="he30Ml1P8pCFyXs213_a-10" style="edgeStyle=orthogonalEdgeStyle;rounded=0;orthogonalLoop=1;jettySize=auto;html=1;exitX=0.5;exitY=1;exitDx=0;exitDy=0;" edge="1" parent="1">
          <mxGeometry relative="1" as="geometry">
            <mxPoint x="495" y="669" as="sourcePoint" />
            <mxPoint x="495" y="669" as="targetPoint" />
          </mxGeometry>
        </mxCell>
        <mxCell id="he30Ml1P8pCFyXs213_a-12" value="" style="rounded=0;whiteSpace=wrap;html=1;" vertex="1" parent="1">
          <mxGeometry x="45" y="640" width="260" height="230" as="geometry" />
        </mxCell>
        <mxCell id="he30Ml1P8pCFyXs213_a-13" value="" style="rounded=0;whiteSpace=wrap;html=1;" vertex="1" parent="1">
          <mxGeometry x="735" y="640" width="210" height="230" as="geometry" />
        </mxCell>
        <mxCell id="he30Ml1P8pCFyXs213_a-15" value="Pedir servicio" style="text;html=1;align=center;verticalAlign=middle;whiteSpace=wrap;rounded=0;" vertex="1" parent="1">
          <mxGeometry x="135" y="640" width="80" height="30" as="geometry" />
        </mxCell>
        <mxCell id="he30Ml1P8pCFyXs213_a-16" value="Mis Servicios" style="text;html=1;align=center;verticalAlign=middle;whiteSpace=wrap;rounded=0;" vertex="1" parent="1">
          <mxGeometry x="800" y="640" width="80" height="30" as="geometry" />
        </mxCell>
        <mxCell id="he30Ml1P8pCFyXs213_a-17" value="Fecha" style="text;html=1;align=center;verticalAlign=middle;whiteSpace=wrap;rounded=0;" vertex="1" parent="1">
          <mxGeometry x="95" y="670" width="60" height="30" as="geometry" />
        </mxCell>
        <mxCell id="he30Ml1P8pCFyXs213_a-18" value="Hora" style="text;html=1;align=center;verticalAlign=middle;whiteSpace=wrap;rounded=0;" vertex="1" parent="1">
          <mxGeometry x="95" y="700" width="60" height="30" as="geometry" />
        </mxCell>
        <mxCell id="he30Ml1P8pCFyXs213_a-19" value="" style="rounded=0;whiteSpace=wrap;html=1;" vertex="1" parent="1">
          <mxGeometry x="55" y="745" width="100" height="70" as="geometry" />
        </mxCell>
        <mxCell id="he30Ml1P8pCFyXs213_a-20" value="Trabajos&lt;div&gt;a realizar&lt;/div&gt;" style="text;html=1;align=center;verticalAlign=middle;whiteSpace=wrap;rounded=0;" vertex="1" parent="1">
          <mxGeometry x="75" y="745" width="60" height="30" as="geometry" />
        </mxCell>
        <mxCell id="he30Ml1P8pCFyXs213_a-22" value="" style="rounded=0;whiteSpace=wrap;html=1;" vertex="1" parent="1">
          <mxGeometry x="165" y="745" width="130" height="70" as="geometry" />
        </mxCell>
        <mxCell id="he30Ml1P8pCFyXs213_a-23" value="Establecimiento" style="text;html=1;align=center;verticalAlign=middle;whiteSpace=wrap;rounded=0;" vertex="1" parent="1">
          <mxGeometry x="200" y="745" width="60" height="30" as="geometry" />
        </mxCell>
        <mxCell id="he30Ml1P8pCFyXs213_a-80" style="edgeStyle=orthogonalEdgeStyle;rounded=0;orthogonalLoop=1;jettySize=auto;html=1;exitX=0.5;exitY=1;exitDx=0;exitDy=0;entryX=0.25;entryY=1;entryDx=0;entryDy=0;" edge="1" parent="1" source="he30Ml1P8pCFyXs213_a-25" target="he30Ml1P8pCFyXs213_a-2">
          <mxGeometry relative="1" as="geometry" />
        </mxCell>
        <mxCell id="he30Ml1P8pCFyXs213_a-25" value="volver" style="rounded=1;whiteSpace=wrap;html=1;" vertex="1" parent="1">
          <mxGeometry x="55" y="830" width="90" height="30" as="geometry" />
        </mxCell>
        <mxCell id="he30Ml1P8pCFyXs213_a-26" value="Enviar" style="rounded=1;whiteSpace=wrap;html=1;" vertex="1" parent="1">
          <mxGeometry x="200" y="830" width="90" height="30" as="geometry" />
        </mxCell>
        <mxCell id="he30Ml1P8pCFyXs213_a-27" value="" style="rounded=0;whiteSpace=wrap;html=1;" vertex="1" parent="1">
          <mxGeometry x="745" y="710" width="190" height="110" as="geometry" />
        </mxCell>
        <mxCell id="he30Ml1P8pCFyXs213_a-30" value="Filtrar" style="rounded=1;whiteSpace=wrap;html=1;" vertex="1" parent="1">
          <mxGeometry x="865" y="670" width="60" height="30" as="geometry" />
        </mxCell>
        <mxCell id="he30Ml1P8pCFyXs213_a-35" style="edgeStyle=orthogonalEdgeStyle;rounded=0;orthogonalLoop=1;jettySize=auto;html=1;exitX=0;exitY=0.5;exitDx=0;exitDy=0;entryX=0.5;entryY=0;entryDx=0;entryDy=0;" edge="1" parent="1" source="he30Ml1P8pCFyXs213_a-31" target="he30Ml1P8pCFyXs213_a-36">
          <mxGeometry relative="1" as="geometry">
            <mxPoint x="655" y="760" as="targetPoint" />
          </mxGeometry>
        </mxCell>
        <mxCell id="he30Ml1P8pCFyXs213_a-31" value="Filtros" style="shape=process;whiteSpace=wrap;html=1;backgroundOutline=1;" vertex="1" parent="1">
          <mxGeometry x="755" y="670" width="80" height="30" as="geometry" />
        </mxCell>
        <mxCell id="he30Ml1P8pCFyXs213_a-36" value="" style="rounded=0;whiteSpace=wrap;html=1;" vertex="1" parent="1">
          <mxGeometry x="495" y="720" width="220" height="130" as="geometry" />
        </mxCell>
        <mxCell id="he30Ml1P8pCFyXs213_a-37" value="trabajos" style="text;html=1;align=center;verticalAlign=middle;whiteSpace=wrap;rounded=0;" vertex="1" parent="1">
          <mxGeometry x="495" y="720" width="60" height="30" as="geometry" />
        </mxCell>
        <mxCell id="he30Ml1P8pCFyXs213_a-38" value="establecimiento" style="text;html=1;align=center;verticalAlign=middle;whiteSpace=wrap;rounded=0;" vertex="1" parent="1">
          <mxGeometry x="495" y="750" width="100" height="30" as="geometry" />
        </mxCell>
        <mxCell id="he30Ml1P8pCFyXs213_a-39" value="fecha" style="text;html=1;align=center;verticalAlign=middle;resizable=0;points=[];autosize=1;strokeColor=none;fillColor=none;" vertex="1" parent="1">
          <mxGeometry x="495" y="780" width="50" height="30" as="geometry" />
        </mxCell>
        <mxCell id="he30Ml1P8pCFyXs213_a-40" value="hora" style="text;html=1;align=center;verticalAlign=middle;resizable=0;points=[];autosize=1;strokeColor=none;fillColor=none;" vertex="1" parent="1">
          <mxGeometry x="495" y="810" width="50" height="30" as="geometry" />
        </mxCell>
        <mxCell id="he30Ml1P8pCFyXs213_a-42" value="" style="shape=process;whiteSpace=wrap;html=1;backgroundOutline=1;" vertex="1" parent="1">
          <mxGeometry x="595" y="725" width="50" height="25" as="geometry" />
        </mxCell>
        <mxCell id="he30Ml1P8pCFyXs213_a-43" value="" style="shape=process;whiteSpace=wrap;html=1;backgroundOutline=1;" vertex="1" parent="1">
          <mxGeometry x="595" y="755" width="50" height="25" as="geometry" />
        </mxCell>
        <mxCell id="he30Ml1P8pCFyXs213_a-45" value="" style="rounded=0;whiteSpace=wrap;html=1;" vertex="1" parent="1">
          <mxGeometry x="595" y="785" width="80" height="25" as="geometry" />
        </mxCell>
        <mxCell id="he30Ml1P8pCFyXs213_a-46" value="" style="rounded=0;whiteSpace=wrap;html=1;" vertex="1" parent="1">
          <mxGeometry x="595" y="815" width="80" height="25" as="geometry" />
        </mxCell>
        <mxCell id="he30Ml1P8pCFyXs213_a-47" value="" style="rounded=0;whiteSpace=wrap;html=1;" vertex="1" parent="1">
          <mxGeometry x="155" y="675" width="80" height="25" as="geometry" />
        </mxCell>
        <mxCell id="he30Ml1P8pCFyXs213_a-48" value="" style="rounded=0;whiteSpace=wrap;html=1;" vertex="1" parent="1">
          <mxGeometry x="155" y="705" width="80" height="25" as="geometry" />
        </mxCell>
        <mxCell id="he30Ml1P8pCFyXs213_a-49" value="" style="rounded=0;whiteSpace=wrap;html=1;" vertex="1" parent="1">
          <mxGeometry x="49" y="295" width="239" height="170" as="geometry" />
        </mxCell>
        <mxCell id="he30Ml1P8pCFyXs213_a-50" value="Trabajador" style="text;html=1;align=center;verticalAlign=middle;whiteSpace=wrap;rounded=0;" vertex="1" parent="1">
          <mxGeometry x="49" y="295" width="69" height="30" as="geometry" />
        </mxCell>
        <mxCell id="he30Ml1P8pCFyXs213_a-52" value="Trabajos" style="text;html=1;align=center;verticalAlign=middle;whiteSpace=wrap;rounded=0;" vertex="1" parent="1">
          <mxGeometry x="138.5" y="305" width="60" height="30" as="geometry" />
        </mxCell>
        <mxCell id="he30Ml1P8pCFyXs213_a-53" value="" style="rounded=0;whiteSpace=wrap;html=1;" vertex="1" parent="1">
          <mxGeometry x="73.5" y="335" width="190" height="120" as="geometry" />
        </mxCell>
        <mxCell id="he30Ml1P8pCFyXs213_a-54" value="" style="rounded=0;whiteSpace=wrap;html=1;" vertex="1" parent="1">
          <mxGeometry x="416" y="40" width="267.12" height="140" as="geometry" />
        </mxCell>
        <mxCell id="he30Ml1P8pCFyXs213_a-55" value="CompaÃ±ia" style="text;html=1;align=center;verticalAlign=middle;whiteSpace=wrap;rounded=0;" vertex="1" parent="1">
          <mxGeometry x="416" y="40" width="70" height="30" as="geometry" />
        </mxCell>
        <mxCell id="he30Ml1P8pCFyXs213_a-56" value="Trabajadores" style="rounded=1;whiteSpace=wrap;html=1;" vertex="1" parent="1">
          <mxGeometry x="436" y="80" width="90" height="30" as="geometry" />
        </mxCell>
        <mxCell id="he30Ml1P8pCFyXs213_a-57" value="Clientes" style="rounded=1;whiteSpace=wrap;html=1;" vertex="1" parent="1">
          <mxGeometry x="566" y="80" width="90" height="30" as="geometry" />
        </mxCell>
        <mxCell id="he30Ml1P8pCFyXs213_a-59" value="actualizar codigo" style="rounded=1;whiteSpace=wrap;html=1;" vertex="1" parent="1">
          <mxGeometry x="498.8399999999999" y="125" width="101.44" height="30" as="geometry" />
        </mxCell>
        <mxCell id="he30Ml1P8pCFyXs213_a-60" value="" style="rounded=0;whiteSpace=wrap;html=1;" vertex="1" parent="1">
          <mxGeometry x="438" y="255" width="239" height="145" as="geometry" />
        </mxCell>
        <mxCell id="he30Ml1P8pCFyXs213_a-61" value="Correo&lt;span style=&quot;color: rgba(0, 0, 0, 0); font-family: monospace; font-size: 0px; text-align: start; text-wrap: nowrap;&quot;&gt;%3CmxGraphModel%3E%3Croot%3E%3CmxCell%20id%3D%220%22%2F%3E%3CmxCell%20id%3D%221%22%20parent%3D%220%22%2F%3E%3CmxCell%20id%3D%222%22%20value%3D%22%22%20style%3D%22rounded%3D0%3BwhiteSpace%3Dwrap%3Bhtml%3D1%3B%22%20vertex%3D%221%22%20parent%3D%221%22%3E%3CmxGeometry%20x%3D%2231%22%20y%3D%2275%22%20width%3D%22239%22%20height%3D%22170%22%20as%3D%22geometry%22%2F%3E%3C%2FmxCell%3E%3C%2Froot%3E%3C%2FmxGraphModel%3E&lt;/span&gt;" style="text;html=1;align=center;verticalAlign=middle;whiteSpace=wrap;rounded=0;" vertex="1" parent="1">
          <mxGeometry x="465" y="296" width="60" height="30" as="geometry" />
        </mxCell>
        <mxCell id="he30Ml1P8pCFyXs213_a-62" value="ContraseÃ±a" style="text;html=1;align=center;verticalAlign=middle;whiteSpace=wrap;rounded=0;" vertex="1" parent="1">
          <mxGeometry x="470" y="325" width="80" height="30" as="geometry" />
        </mxCell>
        <mxCell id="he30Ml1P8pCFyXs213_a-63" value="" style="rounded=0;whiteSpace=wrap;html=1;" vertex="1" parent="1">
          <mxGeometry x="560" y="297.5" width="90" height="25" as="geometry" />
        </mxCell>
        <mxCell id="he30Ml1P8pCFyXs213_a-64" value="" style="rounded=0;whiteSpace=wrap;html=1;" vertex="1" parent="1">
          <mxGeometry x="560" y="330" width="90" height="25" as="geometry" />
        </mxCell>
        <mxCell id="he30Ml1P8pCFyXs213_a-65" value="Bienvenido" style="text;html=1;align=center;verticalAlign=middle;whiteSpace=wrap;rounded=0;" vertex="1" parent="1">
          <mxGeometry x="529.5" y="255" width="60" height="30" as="geometry" />
        </mxCell>
        <mxCell id="he30Ml1P8pCFyXs213_a-68" style="edgeStyle=orthogonalEdgeStyle;rounded=0;orthogonalLoop=1;jettySize=auto;html=1;exitX=0.5;exitY=1;exitDx=0;exitDy=0;" edge="1" parent="1" source="he30Ml1P8pCFyXs213_a-66" target="he30Ml1P8pCFyXs213_a-2">
          <mxGeometry relative="1" as="geometry" />
        </mxCell>
        <mxCell id="he30Ml1P8pCFyXs213_a-69" style="edgeStyle=orthogonalEdgeStyle;rounded=0;orthogonalLoop=1;jettySize=auto;html=1;exitX=0;exitY=0.5;exitDx=0;exitDy=0;entryX=1;entryY=0.5;entryDx=0;entryDy=0;" edge="1" parent="1" source="he30Ml1P8pCFyXs213_a-66" target="he30Ml1P8pCFyXs213_a-49">
          <mxGeometry relative="1" as="geometry" />
        </mxCell>
        <mxCell id="he30Ml1P8pCFyXs213_a-116" style="edgeStyle=orthogonalEdgeStyle;rounded=0;orthogonalLoop=1;jettySize=auto;html=1;exitX=0;exitY=0.5;exitDx=0;exitDy=0;entryX=0;entryY=0.5;entryDx=0;entryDy=0;" edge="1" parent="1" source="he30Ml1P8pCFyXs213_a-66" target="he30Ml1P8pCFyXs213_a-54">
          <mxGeometry relative="1" as="geometry">
            <Array as="points">
              <mxPoint x="370" y="380" />
              <mxPoint x="370" y="110" />
            </Array>
          </mxGeometry>
        </mxCell>
        <mxCell id="he30Ml1P8pCFyXs213_a-66" value="Iniciar sesion" style="rounded=1;whiteSpace=wrap;html=1;" vertex="1" parent="1">
          <mxGeometry x="450" y="365" width="90" height="30" as="geometry" />
        </mxCell>
        <mxCell id="he30Ml1P8pCFyXs213_a-77" style="edgeStyle=orthogonalEdgeStyle;rounded=0;orthogonalLoop=1;jettySize=auto;html=1;exitX=0.5;exitY=1;exitDx=0;exitDy=0;entryX=0;entryY=0.5;entryDx=0;entryDy=0;" edge="1" parent="1" source="he30Ml1P8pCFyXs213_a-67" target="he30Ml1P8pCFyXs213_a-70">
          <mxGeometry relative="1" as="geometry" />
        </mxCell>
        <mxCell id="he30Ml1P8pCFyXs213_a-67" value="Registrarse" style="rounded=1;whiteSpace=wrap;html=1;" vertex="1" parent="1">
          <mxGeometry x="573" y="365" width="90" height="30" as="geometry" />
        </mxCell>
        <mxCell id="he30Ml1P8pCFyXs213_a-70" value="" style="rounded=0;whiteSpace=wrap;html=1;" vertex="1" parent="1">
          <mxGeometry x="760" y="230" width="320" height="195" as="geometry" />
        </mxCell>
        <mxCell id="he30Ml1P8pCFyXs213_a-76" style="edgeStyle=orthogonalEdgeStyle;rounded=0;orthogonalLoop=1;jettySize=auto;html=1;exitX=0.5;exitY=1;exitDx=0;exitDy=0;entryX=0.5;entryY=1;entryDx=0;entryDy=0;" edge="1" parent="1" source="he30Ml1P8pCFyXs213_a-71" target="he30Ml1P8pCFyXs213_a-60">
          <mxGeometry relative="1" as="geometry" />
        </mxCell>
        <mxCell id="he30Ml1P8pCFyXs213_a-71" value="Volver" style="rounded=1;whiteSpace=wrap;html=1;" vertex="1" parent="1">
          <mxGeometry x="766.5" y="390" width="57" height="30" as="geometry" />
        </mxCell>
        <mxCell id="he30Ml1P8pCFyXs213_a-74" style="edgeStyle=orthogonalEdgeStyle;rounded=0;orthogonalLoop=1;jettySize=auto;html=1;exitX=0.5;exitY=1;exitDx=0;exitDy=0;entryX=0.5;entryY=1;entryDx=0;entryDy=0;" edge="1" parent="1" source="he30Ml1P8pCFyXs213_a-72" target="he30Ml1P8pCFyXs213_a-60">
          <mxGeometry relative="1" as="geometry" />
        </mxCell>
        <mxCell id="he30Ml1P8pCFyXs213_a-72" value="Registrarse" style="rounded=1;whiteSpace=wrap;html=1;" vertex="1" parent="1">
          <mxGeometry x="880.75" y="390" width="78.5" height="30" as="geometry" />
        </mxCell>
        <mxCell id="he30Ml1P8pCFyXs213_a-73" value="Salir" style="rounded=1;whiteSpace=wrap;html=1;" vertex="1" parent="1">
          <mxGeometry x="1010" y="390" width="57" height="30" as="geometry" />
        </mxCell>
        <mxCell id="he30Ml1P8pCFyXs213_a-81" style="edgeStyle=orthogonalEdgeStyle;rounded=0;orthogonalLoop=1;jettySize=auto;html=1;exitX=0.5;exitY=1;exitDx=0;exitDy=0;entryX=0.25;entryY=1;entryDx=0;entryDy=0;" edge="1" parent="1" source="he30Ml1P8pCFyXs213_a-78" target="he30Ml1P8pCFyXs213_a-2">
          <mxGeometry relative="1" as="geometry" />
        </mxCell>
        <mxCell id="he30Ml1P8pCFyXs213_a-78" value="Volver" style="rounded=1;whiteSpace=wrap;html=1;" vertex="1" parent="1">
          <mxGeometry x="810" y="830" width="60" height="30" as="geometry" />
        </mxCell>
        <mxCell id="he30Ml1P8pCFyXs213_a-92" value="" style="rounded=0;whiteSpace=wrap;html=1;" vertex="1" parent="1">
          <mxGeometry x="835" y="247" width="80" height="20" as="geometry" />
        </mxCell>
        <mxCell id="he30Ml1P8pCFyXs213_a-97" value="" style="rounded=0;whiteSpace=wrap;html=1;" vertex="1" parent="1">
          <mxGeometry x="835" y="273" width="80" height="20" as="geometry" />
        </mxCell>
        <mxCell id="he30Ml1P8pCFyXs213_a-98" value="" style="rounded=0;whiteSpace=wrap;html=1;" vertex="1" parent="1">
          <mxGeometry x="835" y="299.5" width="80" height="20" as="geometry" />
        </mxCell>
        <mxCell id="he30Ml1P8pCFyXs213_a-99" value="" style="rounded=0;whiteSpace=wrap;html=1;" vertex="1" parent="1">
          <mxGeometry x="835" y="327" width="80" height="20" as="geometry" />
        </mxCell>
        <mxCell id="he30Ml1P8pCFyXs213_a-100" value="" style="rounded=0;whiteSpace=wrap;html=1;" vertex="1" parent="1">
          <mxGeometry x="835" y="353" width="80" height="20" as="geometry" />
        </mxCell>
        <mxCell id="he30Ml1P8pCFyXs213_a-101" value="" style="rounded=0;whiteSpace=wrap;html=1;" vertex="1" parent="1">
          <mxGeometry x="987" y="247" width="80" height="20" as="geometry" />
        </mxCell>
        <mxCell id="he30Ml1P8pCFyXs213_a-102" value="" style="rounded=0;whiteSpace=wrap;html=1;" vertex="1" parent="1">
          <mxGeometry x="987" y="273" width="80" height="20" as="geometry" />
        </mxCell>
        <mxCell id="he30Ml1P8pCFyXs213_a-103" value="" style="rounded=0;whiteSpace=wrap;html=1;" vertex="1" parent="1">
          <mxGeometry x="987" y="299.5" width="80" height="20" as="geometry" />
        </mxCell>
        <mxCell id="he30Ml1P8pCFyXs213_a-104" value="" style="rounded=0;whiteSpace=wrap;html=1;" vertex="1" parent="1">
          <mxGeometry x="987" y="327" width="80" height="20" as="geometry" />
        </mxCell>
        <mxCell id="he30Ml1P8pCFyXs213_a-106" value="" style="rounded=1;whiteSpace=wrap;html=1;" vertex="1" parent="1">
          <mxGeometry x="925" y="330" width="10" height="10" as="geometry" />
        </mxCell>
        <mxCell id="he30Ml1P8pCFyXs213_a-107" value="&lt;font style=&quot;font-size: 11px;&quot;&gt;codComp&lt;/font&gt;" style="text;html=1;align=center;verticalAlign=middle;whiteSpace=wrap;rounded=0;" vertex="1" parent="1">
          <mxGeometry x="929" y="318.75" width="65" height="32.5" as="geometry" />
        </mxCell>
        <mxCell id="he30Ml1P8pCFyXs213_a-108" value="contr" style="text;html=1;align=center;verticalAlign=middle;whiteSpace=wrap;rounded=0;" vertex="1" parent="1">
          <mxGeometry x="915" y="269.5" width="60" height="30" as="geometry" />
        </mxCell>
        <mxCell id="he30Ml1P8pCFyXs213_a-109" value="repContr" style="text;html=1;align=center;verticalAlign=middle;whiteSpace=wrap;rounded=0;" vertex="1" parent="1">
          <mxGeometry x="925" y="297" width="60" height="30" as="geometry" />
        </mxCell>
        <mxCell id="he30Ml1P8pCFyXs213_a-110" value="CE" style="text;html=1;align=center;verticalAlign=middle;whiteSpace=wrap;rounded=0;" vertex="1" parent="1">
          <mxGeometry x="915" y="247" width="60" height="30" as="geometry" />
        </mxCell>
        <mxCell id="he30Ml1P8pCFyXs213_a-111" value="Nom" style="text;html=1;align=center;verticalAlign=middle;whiteSpace=wrap;rounded=0;" vertex="1" parent="1">
          <mxGeometry x="766.5" y="243" width="60" height="30" as="geometry" />
        </mxCell>
        <mxCell id="he30Ml1P8pCFyXs213_a-112" value="Ap1" style="text;html=1;align=center;verticalAlign=middle;resizable=0;points=[];autosize=1;strokeColor=none;fillColor=none;" vertex="1" parent="1">
          <mxGeometry x="775" y="268" width="40" height="30" as="geometry" />
        </mxCell>
        <mxCell id="he30Ml1P8pCFyXs213_a-113" value="Ap2" style="text;html=1;align=center;verticalAlign=middle;resizable=0;points=[];autosize=1;strokeColor=none;fillColor=none;" vertex="1" parent="1">
          <mxGeometry x="775" y="294.5" width="40" height="30" as="geometry" />
        </mxCell>
        <mxCell id="he30Ml1P8pCFyXs213_a-114" value="DNI" style="text;html=1;align=center;verticalAlign=middle;resizable=0;points=[];autosize=1;strokeColor=none;fillColor=none;" vertex="1" parent="1">
          <mxGeometry x="775" y="320" width="40" height="30" as="geometry" />
        </mxCell>
        <mxCell id="he30Ml1P8pCFyXs213_a-115" value="Telef" style="text;html=1;align=center;verticalAlign=middle;resizable=0;points=[];autosize=1;strokeColor=none;fillColor=none;" vertex="1" parent="1">
          <mxGeometry x="771.5" y="347" width="50" height="30" as="geometry" />
        </mxCell>
      </root>
    </mxGraphModel>
  </diagram>
</mxfile>
